# Alias OBJ Model File
# Exported from SketchUp, (c) 2000-2012 Trimble Navigation Limited
# File units = millimeters

mtllib armL.mtl

g Mesh1 Group2 Group1 Model

usemtl FrontColor
v -1267.62 -361.741 467.482
vt 0 0
vn 1 0 -0
v -1267.62 436.469 467.482
vt 0 49.8819
v -1267.62 -361.741 551.072
vt 7.18242 0
f 1/1/1 2/2/1 3/3/1

usemtl BackColor
vn -1 -0 0
f 3/3/2 2/2/2 1/1/2

usemtl FrontColor
v -1267.62 -247.588 551.072
vt 7.18242 7.13365
f 4/4/1 3/3/1 2/2/1

v -1267.62 363.389 814.2
vt 29.7915 45.315
f 5/5/1 3/3/1 4/4/1

v -1267.62 363.389 863.361
vt 34.0157 45.315
f 6/6/1 3/3/1 5/5/1

usemtl BackColor
f 5/5/2 3/3/2 6/6/2

f 4/4/2 3/3/2 5/5/2

f 2/2/2 3/3/2 4/4/2

usemtl FrontColor
v -1267.62 363.389 551.072
vt 7.18242 45.315
f 4/4/1 2/2/1 7/7/1

usemtl BackColor
f 7/7/2 2/2/2 4/4/2

usemtl FrontColor
v -1267.62 436.469 863.361
vt 34.0157 49.8819
f 8/8/1 7/7/1 2/2/1

f 5/5/1 7/7/1 8/8/1

usemtl BackColor
f 8/8/2 7/7/2 5/5/2

f 2/2/2 7/7/2 8/8/2

usemtl FrontColor
vt 8.54331 34.0157
vn 0 1 -0
vt 8.54331 0
v -1406.62 436.469 863.361
vt 3.07087 34.0157
f 8/9/3 2/10/3 9/11/3

usemtl BackColor
vn -0 -1 0
f 9/11/4 2/10/4 8/9/4

usemtl FrontColor
v -1406.62 436.469 467.482
vt 3.07087 0
f 10/12/3 9/11/3 2/10/3

vt -34.0157 49.8819
vn -1 0 -0
v -1406.62 363.389 551.072
vt -7.18242 45.315
f 9/13/5 10/2/5 11/14/5

usemtl BackColor
vn 1 -0 0
f 11/14/6 10/2/6 9/13/6

usemtl FrontColor
v -1406.62 -361.741 467.482
f 12/1/5 11/14/5 10/2/5

v -1406.62 -247.588 551.072
vt -7.18242 7.13365
f 13/15/5 11/14/5 12/1/5

vt -3.07087 7.13365
vn 0 -5.11754e-16 1
vt -8.54331 7.13365
vt -3.07087 45.315
f 13/16/7 4/17/7 11/18/7

usemtl BackColor
vn -0 5.11754e-16 -1
f 11/18/8 4/17/8 13/16/8

usemtl FrontColor
vt -8.54331 45.315
f 7/19/7 11/18/7 4/17/7

usemtl BackColor
f 4/17/8 11/18/8 7/19/8

usemtl FrontColor
vt -8.54331 7.18242
vn 0 -1 -0
vt -8.54331 29.7915
vt -3.07087 7.18242
f 7/20/9 5/21/9 11/22/9

usemtl BackColor
vn -0 1 0
f 11/22/10 5/21/10 7/20/10

usemtl FrontColor
v -1406.62 363.389 814.2
vt -3.07087 29.7915
f 14/23/9 11/22/9 5/21/9

usemtl BackColor
f 5/21/10 11/22/10 14/23/10

usemtl FrontColor
vt -29.7915 45.315
f 14/24/5 9/13/5 11/14/5

v -1406.62 363.389 863.361
vt -34.0157 45.315
f 9/13/5 14/24/5 15/25/5

usemtl BackColor
f 11/14/6 9/13/6 14/24/6

f 15/25/6 14/24/6 9/13/6

usemtl FrontColor
v -1406.62 -361.741 551.072
vt -7.18242 0
f 15/25/5 14/24/5 16/26/5

usemtl BackColor
f 16/26/6 14/24/6 15/25/6

usemtl FrontColor
f 14/24/5 13/15/5 16/26/5

usemtl BackColor
f 16/26/6 13/15/6 14/24/6

usemtl FrontColor
f 12/1/5 16/26/5 13/15/5

usemtl BackColor
f 13/15/6 16/26/6 12/1/6

usemtl FrontColor
vt -3.07087 0
f 16/22/9 12/27/9 3/20/9

usemtl BackColor
f 3/20/10 12/27/10 16/22/10

usemtl FrontColor
vt -8.54331 0
f 1/28/9 3/20/9 12/27/9

usemtl BackColor
f 12/27/10 3/20/10 1/28/10

usemtl FrontColor
vn 0 0 -1
vt 8.54331 49.8819
f 1/10/11 12/12/11 2/29/11

usemtl BackColor
vn -0 -0 1
f 2/29/12 12/12/12 1/10/12

usemtl FrontColor
vt 3.07087 49.8819
f 10/30/11 2/29/11 12/12/11

usemtl BackColor
f 12/12/12 2/29/12 10/30/12

f 2/10/4 9/11/4 10/12/4

f 10/2/6 11/14/6 12/1/6

f 12/1/6 11/14/6 13/15/6

usemtl FrontColor
vt -3.07087 3.6596
vn 0 -0.631381 0.775473
vt -8.54331 3.6596
vt -3.07087 56.3234
f 16/31/13 3/32/13 15/33/13

usemtl BackColor
vn -0 0.631381 -0.775473
f 15/33/14 3/32/14 16/31/14

usemtl FrontColor
vt -8.54331 56.3234
f 6/34/13 15/33/13 3/32/13

vn 0 0 1
vt -3.07087 49.8819
f 15/18/15 6/19/15 9/35/15

usemtl BackColor
vn -0 -0 -1
f 9/35/16 6/19/16 15/18/16

usemtl FrontColor
vt -8.54331 49.8819
f 8/36/15 9/35/15 6/19/15

usemtl BackColor
f 6/19/16 9/35/16 8/36/16

usemtl FrontColor
f 6/6/1 5/5/1 8/8/1

usemtl BackColor
f 8/8/2 5/5/2 6/6/2

f 3/32/14 15/33/14 6/34/14

usemtl FrontColor
vt 3.07087 54.171
vn 0 0.631381 -0.775473
vt 8.54331 54.171
vt 3.07087 9.79781
f 14/37/17 5/38/17 13/39/17

usemtl BackColor
vn -0 -0.631381 0.775473
f 13/39/18 5/38/18 14/37/18

usemtl FrontColor
vt 8.54331 9.79781
f 4/40/17 13/39/17 5/38/17

usemtl BackColor
f 5/38/18 13/39/18 4/40/18

g Mesh2 Group2 Group1 Model

l 1 2

l 3 1

l 6 3

l 8 6

l 2 8

l 2 10

l 12 10

l 1 12

l 16 12

l 15 16

l 9 15

l 8 9

l 10 9

l 6 15

l 3 16

g Mesh3 Group2 Group1 Model

l 5 7

l 5 4

l 5 14

l 14 13

l 14 11

l 11 13

l 7 11

l 7 4

l 4 13

g Mesh4 Group3 Group1 Model

usemtl FrontColor
v -838.666 436.469 467.482
vt 67.551 12.9654
v -774.029 436.469 304.104
vt 70.0958 3.98096
v -838.666 436.469 231.712
vt 67.551 0
f 17/41/3 18/42/3 19/43/3

v -774.029 436.469 467.482
vt 70.0958 12.9654
f 18/42/3 17/41/3 20/44/3

usemtl BackColor
f 19/43/4 18/42/4 17/41/4

usemtl FrontColor
v -591.62 436.469 231.712
vt 77.2773 0
f 21/45/3 19/43/3 18/42/3

usemtl BackColor
f 18/42/4 19/43/4 21/45/4

usemtl FrontColor
v -838.666 353.469 231.712
vt 67.551 -3.26772
f 19/43/11 21/45/11 22/46/11

usemtl BackColor
f 22/46/12 21/45/12 19/43/12

usemtl FrontColor
v -591.62 353.469 231.712
vt 77.2773 -3.26772
f 23/47/11 22/46/11 21/45/11

vt -77.2773 0
v -774.029 353.469 304.104
vt -70.0958 3.98096
vt -67.551 0
f 23/48/9 24/49/9 22/50/9

v -490.504 353.469 304.104
vt -81.2582 3.98096
f 25/51/9 24/49/9 23/48/9

usemtl BackColor
f 23/48/10 24/49/10 25/51/10

f 22/50/10 24/49/10 23/48/10

usemtl FrontColor
v -774.029 353.469 467.482
vt -70.0958 12.9654
f 24/49/9 26/52/9 22/50/9

usemtl BackColor
f 22/50/10 26/52/10 24/49/10

usemtl FrontColor
v -838.666 353.469 467.482
vt -67.551 12.9654
f 22/50/9 26/52/9 27/53/9

usemtl BackColor
f 27/53/10 26/52/10 22/50/10

usemtl FrontColor
v -956.463 353.469 598.092
vt -62.9134 20.1479
f 26/52/9 28/54/9 27/53/9

usemtl BackColor
f 27/53/10 28/54/10 26/52/10

usemtl FrontColor
v -2155.5 353.469 467.482
vt -15.707 12.9654
f 27/53/9 28/54/9 29/55/9

usemtl BackColor
f 29/55/10 28/54/10 27/53/10

usemtl FrontColor
v -2554.46 353.469 467.482
vt 0 12.9654
f 29/55/9 28/54/9 30/56/9

usemtl BackColor
f 30/56/10 28/54/10 29/55/10

usemtl FrontColor
v -2554.46 353.469 598.092
vt 0 20.1479
f 31/57/9 30/56/9 28/54/9

usemtl BackColor
f 28/54/10 30/56/10 31/57/10

usemtl FrontColor
vt -20.1479 -3.26772
v -2554.46 436.469 598.092
vt -20.1479 0
vt -12.9654 -3.26772
f 31/58/5 32/59/5 30/60/5

usemtl BackColor
f 30/60/6 32/59/6 31/58/6

usemtl FrontColor
v -2554.46 436.469 467.482
vt -12.9654 0
f 33/61/5 30/60/5 32/59/5

v -2155.5 436.469 467.482
vt 15.707 0
vt 0 -3.26772
f 33/1/11 34/62/11 30/63/11

vt 15.707 12.9654
f 33/56/3 32/57/3 34/64/3

usemtl BackColor
f 34/64/4 32/57/4 33/56/4

usemtl FrontColor
v -956.463 436.469 598.092
vt 62.9134 20.1479
f 35/65/3 34/64/3 32/57/3

f 17/41/3 34/64/3 35/65/3

usemtl BackColor
f 35/65/4 34/64/4 17/41/4

f 32/57/4 34/64/4 35/65/4

usemtl FrontColor
vt -62.9134 0
vt -62.9134 -3.26772
f 35/66/15 32/1/15 28/67/15

usemtl BackColor
f 28/67/16 32/1/16 35/66/16

usemtl FrontColor
f 31/63/15 28/67/15 32/1/15

usemtl BackColor
f 32/1/16 28/67/16 31/63/16

usemtl FrontColor
vt -30.2398 0
vn 0.813102 0 0.582122
vt -30.2398 -3.26772
vt -40.3973 0
f 35/68/19 28/69/19 20/70/19

usemtl BackColor
vn -0.813102 -0 -0.582122
f 20/70/20 28/69/20 35/68/20

usemtl FrontColor
vt -40.3973 -3.26772
f 26/71/19 20/70/19 28/69/19

usemtl BackColor
f 28/69/20 20/70/20 26/71/20

usemtl FrontColor
vt 12.9654 0
vt 12.9654 -3.26772
vt 3.98096 0
f 20/72/1 26/73/1 18/74/1

usemtl BackColor
f 18/74/2 26/73/2 20/72/2

usemtl FrontColor
vt 3.98096 -3.26772
f 24/75/1 18/74/1 26/73/1

usemtl BackColor
f 26/73/2 18/74/2 24/75/2

usemtl FrontColor
vt -70.0958 -3.26772
vt -81.2582 -3.26772
vt -70.0958 0
f 24/76/15 25/77/15 18/78/15

usemtl BackColor
f 18/78/16 25/77/16 24/76/16

usemtl FrontColor
v -490.504 436.469 304.104
vt -81.2582 0
f 36/79/15 18/78/15 25/77/15

vt 81.2582 3.98096
f 36/80/3 21/45/3 18/42/3

usemtl BackColor
f 18/42/4 21/45/4 36/80/4

usemtl FrontColor
vt 54.6433 0
vn 0.813102 0 -0.582122
vt 60.2732 0
vt 54.6433 -3.26772
f 21/81/21 36/82/21 23/83/21

usemtl BackColor
vn -0.813102 -0 0.582122
f 23/83/22 36/82/22 21/81/22

usemtl FrontColor
vt 60.2732 -3.26772
f 25/84/21 23/83/21 36/82/21

usemtl BackColor
f 36/82/22 23/83/22 25/84/22

f 25/77/16 18/78/16 36/79/16

f 21/45/12 22/46/12 23/47/12

f 20/44/4 17/41/4 18/42/4

usemtl FrontColor
f 20/44/3 17/41/3 35/65/3

usemtl BackColor
f 35/65/4 17/41/4 20/44/4

usemtl FrontColor
vt 15.707 -3.26772
f 34/62/11 17/43/11 29/85/11

usemtl BackColor
f 29/85/12 17/43/12 34/62/12

usemtl FrontColor
f 27/46/11 29/85/11 17/43/11

usemtl BackColor
f 17/43/12 29/85/12 27/46/12

usemtl FrontColor
f 27/60/5 17/61/5 22/63/5

usemtl BackColor
f 22/63/6 17/61/6 27/60/6

usemtl FrontColor
f 19/1/5 22/63/5 17/61/5

usemtl BackColor
f 17/61/6 22/63/6 19/1/6

usemtl FrontColor
f 29/85/11 30/63/11 34/62/11

usemtl BackColor
f 34/62/12 30/63/12 29/85/12

f 30/63/12 34/62/12 33/1/12

f 32/59/6 30/60/6 33/61/6

g Mesh5 Group3 Group1 Model

l 18 20

l 18 36

l 18 24

l 24 26

l 24 25

l 25 23

l 36 25

l 36 21

l 21 19

l 21 23

l 23 22

l 27 22

l 27 29

l 17 27

l 17 19

l 17 34

l 33 34

l 32 33

l 35 32

l 20 35

l 20 26

l 26 28

l 28 31

l 35 28

l 31 30

l 32 31

l 30 29

l 33 30

l 34 29

l 19 22

g Mesh6 Group4 Group1 Model

usemtl FrontColor
v -838.666 -361.741 467.482
v -838.666 436.469 467.482
v -838.666 -361.741 551.072
f 37/1/1 38/2/1 39/3/1

usemtl BackColor
f 39/3/2 38/2/2 37/1/2

usemtl FrontColor
v -838.666 -247.588 551.072
f 40/4/1 39/3/1 38/2/1

v -838.666 363.389 814.2
f 41/5/1 39/3/1 40/4/1

v -838.666 363.389 863.361
f 42/6/1 39/3/1 41/5/1

usemtl BackColor
f 41/5/2 39/3/2 42/6/2

f 40/4/2 39/3/2 41/5/2

f 38/2/2 39/3/2 40/4/2

usemtl FrontColor
v -838.666 363.389 551.072
f 40/4/1 38/2/1 43/7/1

usemtl BackColor
f 43/7/2 38/2/2 40/4/2

usemtl FrontColor
v -838.666 436.469 863.361
f 44/8/1 43/7/1 38/2/1

f 41/5/1 43/7/1 44/8/1

usemtl BackColor
f 44/8/2 43/7/2 41/5/2

f 38/2/2 43/7/2 44/8/2

usemtl FrontColor
v -977.666 436.469 863.361
f 44/9/3 38/10/3 45/11/3

usemtl BackColor
f 45/11/4 38/10/4 44/9/4

usemtl FrontColor
v -977.666 436.469 467.482
f 46/12/3 45/11/3 38/10/3

v -977.666 363.389 551.072
f 45/13/5 46/2/5 47/14/5

usemtl BackColor
f 47/14/6 46/2/6 45/13/6

usemtl FrontColor
v -977.666 -361.741 467.482
f 48/1/5 47/14/5 46/2/5

v -977.666 -247.588 551.072
f 49/15/5 47/14/5 48/1/5

f 49/16/7 40/17/7 47/18/7

usemtl BackColor
f 47/18/8 40/17/8 49/16/8

usemtl FrontColor
f 43/19/7 47/18/7 40/17/7

usemtl BackColor
f 40/17/8 47/18/8 43/19/8

usemtl FrontColor
f 43/20/9 41/21/9 47/22/9

usemtl BackColor
f 47/22/10 41/21/10 43/20/10

usemtl FrontColor
v -977.666 363.389 814.2
f 50/23/9 47/22/9 41/21/9

usemtl BackColor
f 41/21/10 47/22/10 50/23/10

usemtl FrontColor
f 50/24/5 45/13/5 47/14/5

v -977.666 363.389 863.361
f 45/13/5 50/24/5 51/25/5

usemtl BackColor
f 47/14/6 45/13/6 50/24/6

f 51/25/6 50/24/6 45/13/6

usemtl FrontColor
v -977.666 -361.741 551.072
f 51/25/5 50/24/5 52/26/5

usemtl BackColor
f 52/26/6 50/24/6 51/25/6

usemtl FrontColor
f 50/24/5 49/15/5 52/26/5

usemtl BackColor
f 52/26/6 49/15/6 50/24/6

usemtl FrontColor
f 48/1/5 52/26/5 49/15/5

usemtl BackColor
f 49/15/6 52/26/6 48/1/6

usemtl FrontColor
f 52/22/9 48/27/9 39/20/9

usemtl BackColor
f 39/20/10 48/27/10 52/22/10

usemtl FrontColor
f 37/28/9 39/20/9 48/27/9

usemtl BackColor
f 48/27/10 39/20/10 37/28/10

usemtl FrontColor
f 37/10/11 48/12/11 38/29/11

usemtl BackColor
f 38/29/12 48/12/12 37/10/12

usemtl FrontColor
f 46/30/11 38/29/11 48/12/11

usemtl BackColor
f 48/12/12 38/29/12 46/30/12

f 38/10/4 45/11/4 46/12/4

f 46/2/6 47/14/6 48/1/6

f 48/1/6 47/14/6 49/15/6

usemtl FrontColor
f 52/31/13 39/32/13 51/33/13

usemtl BackColor
f 51/33/14 39/32/14 52/31/14

usemtl FrontColor
f 42/34/13 51/33/13 39/32/13

f 51/18/15 42/19/15 45/35/15

usemtl BackColor
f 45/35/16 42/19/16 51/18/16

usemtl FrontColor
f 44/36/15 45/35/15 42/19/15

usemtl BackColor
f 42/19/16 45/35/16 44/36/16

usemtl FrontColor
f 42/6/1 41/5/1 44/8/1

usemtl BackColor
f 44/8/2 41/5/2 42/6/2

f 39/32/14 51/33/14 42/34/14

usemtl FrontColor
f 50/37/17 41/38/17 49/39/17

usemtl BackColor
f 49/39/18 41/38/18 50/37/18

usemtl FrontColor
f 40/40/17 49/39/17 41/38/17

usemtl BackColor
f 41/38/18 49/39/18 40/40/18

g Mesh7 Group4 Group1 Model

l 37 38

l 39 37

l 42 39

l 44 42

l 38 44

l 38 46

l 48 46

l 37 48

l 52 48

l 51 52

l 45 51

l 44 45

l 46 45

l 42 51

l 39 52

g Mesh8 Group4 Group1 Model

l 41 43

l 41 40

l 41 50

l 50 49

l 50 47

l 47 49

l 43 47

l 43 40

l 40 49

g Mesh9 Group5 Group1 Model

usemtl FrontColor
v -838.666 -361.741 467.482
v -774.029 -361.741 304.104
v -838.666 -361.741 231.712
f 53/41/3 54/42/3 55/43/3

v -774.029 -361.741 467.482
f 54/42/3 53/41/3 56/44/3

usemtl BackColor
f 55/43/4 54/42/4 53/41/4

usemtl FrontColor
v -591.62 -361.741 231.712
f 57/45/3 55/43/3 54/42/3

usemtl BackColor
f 54/42/4 55/43/4 57/45/4

usemtl FrontColor
v -838.666 -444.741 231.712
f 55/43/11 57/45/11 58/46/11

usemtl BackColor
f 58/46/12 57/45/12 55/43/12

usemtl FrontColor
v -591.62 -444.741 231.712
f 59/47/11 58/46/11 57/45/11

v -774.029 -444.741 304.104
f 59/48/9 60/49/9 58/50/9

v -490.504 -444.741 304.104
f 61/51/9 60/49/9 59/48/9

usemtl BackColor
f 59/48/10 60/49/10 61/51/10

f 58/50/10 60/49/10 59/48/10

usemtl FrontColor
v -774.029 -444.741 467.482
f 60/49/9 62/52/9 58/50/9

usemtl BackColor
f 58/50/10 62/52/10 60/49/10

usemtl FrontColor
v -838.666 -444.741 467.482
f 58/50/9 62/52/9 63/53/9

usemtl BackColor
f 63/53/10 62/52/10 58/50/10

usemtl FrontColor
v -956.463 -444.741 598.092
f 62/52/9 64/54/9 63/53/9

usemtl BackColor
f 63/53/10 64/54/10 62/52/10

usemtl FrontColor
v -2155.5 -444.741 467.482
f 63/53/9 64/54/9 65/55/9

usemtl BackColor
f 65/55/10 64/54/10 63/53/10

usemtl FrontColor
v -2554.46 -444.741 467.482
f 65/55/9 64/54/9 66/56/9

usemtl BackColor
f 66/56/10 64/54/10 65/55/10

usemtl FrontColor
v -2554.46 -444.741 598.092
f 67/57/9 66/56/9 64/54/9

usemtl BackColor
f 64/54/10 66/56/10 67/57/10

usemtl FrontColor
v -2554.46 -361.741 598.092
f 67/58/5 68/59/5 66/60/5

usemtl BackColor
f 66/60/6 68/59/6 67/58/6

usemtl FrontColor
v -2554.46 -361.741 467.482
f 69/61/5 66/60/5 68/59/5

v -2155.5 -361.741 467.482
f 69/1/11 70/62/11 66/63/11

f 69/56/3 68/57/3 70/64/3

usemtl BackColor
f 70/64/4 68/57/4 69/56/4

usemtl FrontColor
v -956.463 -361.741 598.092
f 71/65/3 70/64/3 68/57/3

f 53/41/3 70/64/3 71/65/3

usemtl BackColor
f 71/65/4 70/64/4 53/41/4

f 68/57/4 70/64/4 71/65/4

usemtl FrontColor
f 71/66/15 68/1/15 64/67/15

usemtl BackColor
f 64/67/16 68/1/16 71/66/16

usemtl FrontColor
f 67/63/15 64/67/15 68/1/15

usemtl BackColor
f 68/1/16 64/67/16 67/63/16

usemtl FrontColor
f 71/68/19 64/69/19 56/70/19

usemtl BackColor
f 56/70/20 64/69/20 71/68/20

usemtl FrontColor
f 62/71/19 56/70/19 64/69/19

usemtl BackColor
f 64/69/20 56/70/20 62/71/20

usemtl FrontColor
f 56/72/1 62/73/1 54/74/1

usemtl BackColor
f 54/74/2 62/73/2 56/72/2

usemtl FrontColor
f 60/75/1 54/74/1 62/73/1

usemtl BackColor
f 62/73/2 54/74/2 60/75/2

usemtl FrontColor
f 60/76/15 61/77/15 54/78/15

usemtl BackColor
f 54/78/16 61/77/16 60/76/16

usemtl FrontColor
v -490.504 -361.741 304.104
f 72/79/15 54/78/15 61/77/15

f 72/80/3 57/45/3 54/42/3

usemtl BackColor
f 54/42/4 57/45/4 72/80/4

usemtl FrontColor
f 57/81/21 72/82/21 59/83/21

usemtl BackColor
f 59/83/22 72/82/22 57/81/22

usemtl FrontColor
f 61/84/21 59/83/21 72/82/21

usemtl BackColor
f 72/82/22 59/83/22 61/84/22

f 61/77/16 54/78/16 72/79/16

f 57/45/12 58/46/12 59/47/12

f 56/44/4 53/41/4 54/42/4

usemtl FrontColor
f 56/44/3 53/41/3 71/65/3

usemtl BackColor
f 71/65/4 53/41/4 56/44/4

usemtl FrontColor
f 70/62/11 53/43/11 65/85/11

usemtl BackColor
f 65/85/12 53/43/12 70/62/12

usemtl FrontColor
f 63/46/11 65/85/11 53/43/11

usemtl BackColor
f 53/43/12 65/85/12 63/46/12

usemtl FrontColor
f 63/60/5 53/61/5 58/63/5

usemtl BackColor
f 58/63/6 53/61/6 63/60/6

usemtl FrontColor
f 55/1/5 58/63/5 53/61/5

usemtl BackColor
f 53/61/6 58/63/6 55/1/6

usemtl FrontColor
f 65/85/11 66/63/11 70/62/11

usemtl BackColor
f 70/62/12 66/63/12 65/85/12

f 66/63/12 70/62/12 69/1/12

f 68/59/6 66/60/6 69/61/6

g Mesh10 Group5 Group1 Model

l 54 56

l 54 72

l 54 60

l 60 62

l 60 61

l 61 59

l 72 61

l 72 57

l 57 55

l 57 59

l 59 58

l 63 58

l 63 65

l 53 63

l 53 55

l 53 70

l 69 70

l 68 69

l 71 68

l 56 71

l 56 62

l 62 64

l 64 67

l 71 64

l 67 66

l 68 67

l 66 65

l 69 66

l 70 65

l 55 58

g Mesh11 Group6 Group1 Model

usemtl FrontColor
v -2125.51 -361.741 467.482
v -2125.51 436.469 467.482
v -2125.51 -361.741 551.072
f 73/1/1 74/2/1 75/3/1

usemtl BackColor
f 75/3/2 74/2/2 73/1/2

usemtl FrontColor
v -2125.51 -247.588 551.072
f 76/4/1 75/3/1 74/2/1

v -2125.51 363.389 814.2
f 77/5/1 75/3/1 76/4/1

v -2125.51 363.389 863.361
f 78/6/1 75/3/1 77/5/1

usemtl BackColor
f 77/5/2 75/3/2 78/6/2

f 76/4/2 75/3/2 77/5/2

f 74/2/2 75/3/2 76/4/2

usemtl FrontColor
v -2125.51 363.389 551.072
f 76/4/1 74/2/1 79/7/1

usemtl BackColor
f 79/7/2 74/2/2 76/4/2

usemtl FrontColor
v -2125.51 436.469 863.361
f 80/8/1 79/7/1 74/2/1

f 77/5/1 79/7/1 80/8/1

usemtl BackColor
f 80/8/2 79/7/2 77/5/2

f 74/2/2 79/7/2 80/8/2

usemtl FrontColor
v -2264.51 436.469 863.361
f 80/9/3 74/10/3 81/11/3

usemtl BackColor
f 81/11/4 74/10/4 80/9/4

usemtl FrontColor
v -2264.51 436.469 467.482
f 82/12/3 81/11/3 74/10/3

v -2264.51 363.389 551.072
f 81/13/5 82/2/5 83/14/5

usemtl BackColor
f 83/14/6 82/2/6 81/13/6

usemtl FrontColor
v -2264.51 -361.741 467.482
f 84/1/5 83/14/5 82/2/5

v -2264.51 -247.588 551.072
f 85/15/5 83/14/5 84/1/5

f 85/16/7 76/17/7 83/18/7

usemtl BackColor
f 83/18/8 76/17/8 85/16/8

usemtl FrontColor
f 79/19/7 83/18/7 76/17/7

usemtl BackColor
f 76/17/8 83/18/8 79/19/8

usemtl FrontColor
f 79/20/9 77/21/9 83/22/9

usemtl BackColor
f 83/22/10 77/21/10 79/20/10

usemtl FrontColor
v -2264.51 363.389 814.2
f 86/23/9 83/22/9 77/21/9

usemtl BackColor
f 77/21/10 83/22/10 86/23/10

usemtl FrontColor
f 86/24/5 81/13/5 83/14/5

v -2264.51 363.389 863.361
f 81/13/5 86/24/5 87/25/5

usemtl BackColor
f 83/14/6 81/13/6 86/24/6

f 87/25/6 86/24/6 81/13/6

usemtl FrontColor
v -2264.51 -361.741 551.072
f 87/25/5 86/24/5 88/26/5

usemtl BackColor
f 88/26/6 86/24/6 87/25/6

usemtl FrontColor
f 86/24/5 85/15/5 88/26/5

usemtl BackColor
f 88/26/6 85/15/6 86/24/6

usemtl FrontColor
f 84/1/5 88/26/5 85/15/5

usemtl BackColor
f 85/15/6 88/26/6 84/1/6

usemtl FrontColor
f 88/22/9 84/27/9 75/20/9

usemtl BackColor
f 75/20/10 84/27/10 88/22/10

usemtl FrontColor
f 73/28/9 75/20/9 84/27/9

usemtl BackColor
f 84/27/10 75/20/10 73/28/10

usemtl FrontColor
f 73/10/11 84/12/11 74/29/11

usemtl BackColor
f 74/29/12 84/12/12 73/10/12

usemtl FrontColor
f 82/30/11 74/29/11 84/12/11

usemtl BackColor
f 84/12/12 74/29/12 82/30/12

f 74/10/4 81/11/4 82/12/4

f 82/2/6 83/14/6 84/1/6

f 84/1/6 83/14/6 85/15/6

usemtl FrontColor
f 88/31/13 75/32/13 87/33/13

usemtl BackColor
f 87/33/14 75/32/14 88/31/14

usemtl FrontColor
f 78/34/13 87/33/13 75/32/13

f 87/18/15 78/19/15 81/35/15

usemtl BackColor
f 81/35/16 78/19/16 87/18/16

usemtl FrontColor
f 80/36/15 81/35/15 78/19/15

usemtl BackColor
f 78/19/16 81/35/16 80/36/16

usemtl FrontColor
f 78/6/1 77/5/1 80/8/1

usemtl BackColor
f 80/8/2 77/5/2 78/6/2

f 75/32/14 87/33/14 78/34/14

usemtl FrontColor
f 86/37/17 77/38/17 85/39/17

usemtl BackColor
f 85/39/18 77/38/18 86/37/18

usemtl FrontColor
f 76/40/17 85/39/17 77/38/17

usemtl BackColor
f 77/38/18 85/39/18 76/40/18

g Mesh12 Group6 Group1 Model

l 73 74

l 75 73

l 78 75

l 80 78

l 74 80

l 74 82

l 84 82

l 73 84

l 88 84

l 87 88

l 81 87

l 80 81

l 82 81

l 78 87

l 75 88

g Mesh13 Group6 Group1 Model

l 77 79

l 77 76

l 77 86

l 86 85

l 86 83

l 83 85

l 79 83

l 79 76

l 76 85

g Mesh14 Group7 Group1 Model

usemtl FrontColor
v -1696.56 -361.741 467.482
v -1696.56 436.469 467.482
v -1696.56 -361.741 551.072
f 89/1/1 90/2/1 91/3/1

usemtl BackColor
f 91/3/2 90/2/2 89/1/2

usemtl FrontColor
v -1696.56 -247.588 551.072
f 92/4/1 91/3/1 90/2/1

v -1696.56 363.389 814.2
f 93/5/1 91/3/1 92/4/1

v -1696.56 363.389 863.361
f 94/6/1 91/3/1 93/5/1

usemtl BackColor
f 93/5/2 91/3/2 94/6/2

f 92/4/2 91/3/2 93/5/2

f 90/2/2 91/3/2 92/4/2

usemtl FrontColor
v -1696.56 363.389 551.072
f 92/4/1 90/2/1 95/7/1

usemtl BackColor
f 95/7/2 90/2/2 92/4/2

usemtl FrontColor
v -1696.56 436.469 863.361
f 96/8/1 95/7/1 90/2/1

f 93/5/1 95/7/1 96/8/1

usemtl BackColor
f 96/8/2 95/7/2 93/5/2

f 90/2/2 95/7/2 96/8/2

usemtl FrontColor
v -1835.56 436.469 863.361
f 96/9/3 90/10/3 97/11/3

usemtl BackColor
f 97/11/4 90/10/4 96/9/4

usemtl FrontColor
v -1835.56 436.469 467.482
f 98/12/3 97/11/3 90/10/3

v -1835.56 363.389 551.072
f 97/13/5 98/2/5 99/14/5

usemtl BackColor
f 99/14/6 98/2/6 97/13/6

usemtl FrontColor
v -1835.56 -361.741 467.482
f 100/1/5 99/14/5 98/2/5

v -1835.56 -247.588 551.072
f 101/15/5 99/14/5 100/1/5

f 101/16/7 92/17/7 99/18/7

usemtl BackColor
f 99/18/8 92/17/8 101/16/8

usemtl FrontColor
f 95/19/7 99/18/7 92/17/7

usemtl BackColor
f 92/17/8 99/18/8 95/19/8

usemtl FrontColor
f 95/20/9 93/21/9 99/22/9

usemtl BackColor
f 99/22/10 93/21/10 95/20/10

usemtl FrontColor
v -1835.56 363.389 814.2
f 102/23/9 99/22/9 93/21/9

usemtl BackColor
f 93/21/10 99/22/10 102/23/10

usemtl FrontColor
f 102/24/5 97/13/5 99/14/5

v -1835.56 363.389 863.361
f 97/13/5 102/24/5 103/25/5

usemtl BackColor
f 99/14/6 97/13/6 102/24/6

f 103/25/6 102/24/6 97/13/6

usemtl FrontColor
v -1835.56 -361.741 551.072
f 103/25/5 102/24/5 104/26/5

usemtl BackColor
f 104/26/6 102/24/6 103/25/6

usemtl FrontColor
f 102/24/5 101/15/5 104/26/5

usemtl BackColor
f 104/26/6 101/15/6 102/24/6

usemtl FrontColor
f 100/1/5 104/26/5 101/15/5

usemtl BackColor
f 101/15/6 104/26/6 100/1/6

usemtl FrontColor
f 104/22/9 100/27/9 91/20/9

usemtl BackColor
f 91/20/10 100/27/10 104/22/10

usemtl FrontColor
f 89/28/9 91/20/9 100/27/9

usemtl BackColor
f 100/27/10 91/20/10 89/28/10

usemtl FrontColor
f 89/10/11 100/12/11 90/29/11

usemtl BackColor
f 90/29/12 100/12/12 89/10/12

usemtl FrontColor
f 98/30/11 90/29/11 100/12/11

usemtl BackColor
f 100/12/12 90/29/12 98/30/12

f 90/10/4 97/11/4 98/12/4

f 98/2/6 99/14/6 100/1/6

f 100/1/6 99/14/6 101/15/6

usemtl FrontColor
f 104/31/13 91/32/13 103/33/13

usemtl BackColor
f 103/33/14 91/32/14 104/31/14

usemtl FrontColor
f 94/34/13 103/33/13 91/32/13

f 103/18/15 94/19/15 97/35/15

usemtl BackColor
f 97/35/16 94/19/16 103/18/16

usemtl FrontColor
f 96/36/15 97/35/15 94/19/15

usemtl BackColor
f 94/19/16 97/35/16 96/36/16

usemtl FrontColor
f 94/6/1 93/5/1 96/8/1

usemtl BackColor
f 96/8/2 93/5/2 94/6/2

f 91/32/14 103/33/14 94/34/14

usemtl FrontColor
f 102/37/17 93/38/17 101/39/17

usemtl BackColor
f 101/39/18 93/38/18 102/37/18

usemtl FrontColor
f 92/40/17 101/39/17 93/38/17

usemtl BackColor
f 93/38/18 101/39/18 92/40/18

g Mesh15 Group7 Group1 Model

l 89 90

l 91 89

l 94 91

l 96 94

l 90 96

l 90 98

l 100 98

l 89 100

l 104 100

l 103 104

l 97 103

l 96 97

l 98 97

l 94 103

l 91 104

g Mesh16 Group7 Group1 Model

l 93 95

l 93 92

l 93 102

l 102 101

l 102 99

l 99 101

l 95 99

l 95 92

l 92 101

